<?xml version="1.0" encoding="UTF-8"?>
<svg id="Ebene_1" data-name="Ebene 1" xmlns="http://www.w3.org/2000/svg" viewBox="0 0 560.06 368.33">
  <defs>
    <style>
      .cls-1 {
        fill: #ffffff;
      }
    </style>
  </defs>
  <path class="cls-1" d="m299.29,62.61c-.07,0-.12.01-.16.03.04-.01.1-.02.16-.03Z"/>
  <path class="cls-1" d="m310,68.26c.32-.08-11.28-5.45-10.87-5.62-1.02.32,10.41,5.74,10.87,5.62Z"/>
  <path class="cls-1" d="m299.29,62.61c1.86-.13,14.17,4.12,14.17,4.12l1.22-.61s.24-.15.62-.34c-4.53-.84-14.13-3.42-16.01-3.18Z"/>
  <path class="cls-1" d="m23.24,233.32c.12.03.28.01.45-.04-.48-.03-.72-.03-.45.04Z"/>
  <path class="cls-1" d="m29.69,221.46c.15.02.32.02.51,0-.75-.05-1.09-.09-.51,0Z"/>
  <path class="cls-1" d="m475.47,102.65c-1.57-2.25-6.96-11.91-10.11-15.72-3.14-3.82-9.44-14.83-11.01-16.18-1.57-1.35.67-4.04-1.12-6.07-.17-.19-.32-.34-.48-.5L560.06,0l-122.49,45.17c-.32-.96-.67-1.75-1.63-2.28-2.03-1.12-3.15-2.24-3.15-2.24l.9-1.35-.45-2.02s.67-1.57,0-4.05c-.67-2.47-1.8-3.37-2.7-6.29-.9-2.92-1.34-4.27-1.34-4.27,0,0-1.12-.23-2.69,1.12-1.57,1.35-2.47,3.14-2.47,4.49v4.49s.67.45-2.25-.67c-2.92-1.12-2.7,0-2.7,0,0,0-.9-2.47-1.8-3.37-.9-.9-1.58-4.27-2.47-4.94-.9-.67-2.47.67-3.14,2.02-.67,1.35-2.02,2.47-3.59,2.47s.45,1.79-5.17.22c-5.62-1.57-5.39-.45-6.74-2.7-1.35-2.24-2.24-4.5-4.27-5.84-2.02-1.35-.22,1.57,0,3.14.2,1.39,1.97,3.48,2.38,3.95-.49.05-1.31.15-2.61.32-5.17.68-7.86,2.47-7.86,2.47,0,0,6.29-.9,8.08-1.12,1.8-.22,2.92,1.12,4.05,1.79,1.12.68,3.14,1.13,3.14,1.13l-4.71,1.35s-3.6-1.12-4.94-1.12,6.61,5.45,6.61,5.45c0,0-1.13,1.57-5.39-.9-4.26-2.47-8.99-4.27-10.78-4.05s-3.59,1.35-8.08,1.35-7.87.67-7.87.67c0,0,8.09.9,9.89.9h4.04s-7.41,2.02-9.43,1.8c-2.03-.22-3.6,0-7.41.22-3.82.22-4.27,1.12-6.06,1.35-1.8.22,7.12-.8,8.54-.39,2.94.84,6.81,1.32,6.81,1.32,0,0-7.89-.12-10.17.41-3.05.71-3.76,1.32-6.2,1.53-2.44.2,8.02,1.9,5.79,2.41-2.24.51-4.17.91-5.49.91s-1.43.3-2.85,1.32c-1.43,1.02-2.03,1.32-4.27,1.42-2.24.1-1.93,1.02-2.95,1.83-1.02.82-1.62,2.14-3.66,2.44-2.03.3-2.44.51-4.07,1.22-1.62.71,5.29-.51,5.9-.61.34-.06,1.08-.31,1.69-.59-.93.73-2.2,1.81-2.2,1.81,0,0-2.94,1.42-5.89,1.73-2.95.3,1.73.81,1.73.81l-3.36.71s-1.83,1.02-2.64,1.32c-.81.3-1.62,1.12-3.05,1.02-1.11-.08-1.37.58-2.48,1.17.84.28,1.36.46,1.36.46,0,0,3.05-.71,3.46-1.12.41-.41,1.93-.61,2.34-.71.41-.1-2.75,1.93-2.75,1.93,0,0-2.23,1.22-3.45,1.43-.76.13-1.4.41-2.14.6,2.54.81,4.6,1.44,4.78,1.33.81-.51,3.55-.41,3.85-1.12.31-.71,1.23-1.52,3.36-1.93,2.13-.41,4.07-.41,4.07-.41,0,0-1.73,2.44-2.13,2.74-.41.31-2.44,1.12-2.74,1.83-.3.71-.71.71-3.35,1.73-2.65,1.02-4.38,2.84-4.38,2.84l4.57-1.63s-.1.82-.81,1.53c-.71.71,1.12.82-3.05,2.64-4.16,1.83,1.63-.1,1.63-.1,0,0-2.95,1.93-3.46,2.13-.51.2-3.56,1.93-3.97,2.24-.41.3-1.63,2.03-2.65,2.44-1.02.41-6.81,3.96-8.64,4.88-1.83.91-4.98,2.54-7.12,4.37-2.13,1.83-4.98,5.39-5.79,6.3-.81.91-2.03,2.34-2.03,2.34,0,0,5.89-6,6.91-6.81,1.02-.81,3.25-2.64,4.68-3.05,1.42-.41,3.25-1.63,3.86-2.03.61-.41,1.84,1.63-.1,2.74-1.93,1.12-5.48,3.66-4.37,2.95,1.12-.71,3.26-1.42,3.26-1.42,0,0-.51,1.22-1.33,1.73-.81.51-1.93,1.63-2.34,1.93-.41.3-7.32,5.69-7.73,6.61-.41.92,3.25-2.13,4.17-2.64.91-.5.71.41-.71,2.13-1.42,1.73-5.29,5.8-5.29,5.8,0,0-.71,1.83-1.63,3.36-.91,1.52-1.73,3.25-2.13,3.66-.41.41-2.84,4.06-3.66,4.37-.81.31-1.52,1.02-2.03,1.53-.5.51-1.32,1.73-2.75,2.85-1.42,1.12-2.13,4.67-6.09,4.78-3.97.1-4.98-.61-6.71-1.42-1.73-.81-.51,1.22-3.05-.92-2.54-2.14-4.98-3.86-4.98-3.86,0,0,2.23,3.05,3.05,3.86.81.82,2.44,1.43,3.76,1.73,1.32.31,4.07,1.32,4.07,1.32,0,0,4.67,1.22,6.71-.41,2.03-1.63,2.94-.91,1.93-.1-1.02.81-3.96,4.67-3.96,4.67,0,0-1.12,1.22-2.85,1.52-1.73.3-34.21-4.32-39.09-5.07-4.88-.75-29.65-2.25-33.77-4.13-4.13-1.88-20.64-3.75-29.65-1.88-9.01,1.88-7.88,2.25-15.76,4.13-7.88,1.88-29.64,13.51-35.27,20.65-5.63,7.13-7.88,9.01-7.88,9.01,0,0-1.13-.37-7.13,3.38-6,3.75-10.88,8.26-12.76,10.13-1.87,1.88-1.87,1.5-4.88,3.38-3,1.88-7.13,7.13-9.76,10.51-2.62,3.38-6.38,7.88-10.13,10.14-3.75,2.25-3,5.25-3,5.25,0,0-.75,3-2.63,3.38-1.88.37-1.5,3-7.13,2.25-5.63-.74-13.51,2.25-13.51,2.25,0,0,6.81-1.5,8.69-1.15,1.88.36,1.76,1.06.94,1.06s-3.87,1.06-4.7,1.17c-.82.12,3.76,0,3.76,0,0,0-1.06.94-2.47.94s-2.35.12-3.76,0c-1.41-.12-4.11.59-4.11.59l-3.52,1.41s-2,.59-2.47.59-4.23,2.81-4.23,2.81c0,0,2-.82,3.76-1.4,1.76-.59,3.29-1.29,5.05-1.41,1.76-.12.12,1.75.12,1.75l3.64-1.29s2.47,1.06-1.88,1.64c-4.34.58-6.11,1.41-7.87,1.99-1.76.59-5.99,3.17-5.99,3.17l8.57-2.93,1.06.23s-.7.12-1.76.71c-1.06.59-1.76,1.17-2.58,1.52-.82.36-4.46,1.64-5.05,1.88-.59.24-3.64,1.53-3.64,1.53,0,0,4.11-.83,8.69-2.11,4.58-1.3,2.58.23,2.58.23l-2,1.17s-4.09,1.76-6.06,1.89c1.36.1,4.06.3,4.89,0,1.29-.47,2.11.83,3.17.83s1.41.94,1.41.94c0,0-2.82-.71-5.76,1.17-2.93,1.88-8.92,3.75-8.92,3.75,0,0-1.06,2.23,3.29,0,4.34-2.24,3.05,2.11.7,2.58-2.04.41-4.16,2.23-5.3,2.55,1.2.09,3.89.39,3.89.39,0,0,1.06.82,3.87-1.64,2.82-2.47,3.76-.59,3.17-.24-.59.36-2.23,2.7-4.11,2.7s-7.4,1.17-8.34.94c-.94-.24-6.1,0-6.1,0l5.75,1.53s1.23.01,2.21-.31c.98-.33,3.26-.11,4.56-.11s2.72,1.74,2.72,1.74l-2.28.66,1.85,1.52s-2.83,2.18-2.28,2.07c.54-.11,2.5-.66,2.5-.66,0,0,.87,3.81,0,4.13-.87.33.54,2.94-4.35,1.52-4.89-1.41-5.11.55-5.11.55l-8.7-2.94s3.16,1.31,5.44,4.68c2.28,3.37,3.26.32,3.26.32l.87,2.61-1.09,2.83s2.18,1.09,2.72,1.09,2.18,1.63,2.18,1.63c0,0-2.72,3.7-5.22,2.18-2.5-1.53-5-2.61-7.07-5-2.07-2.39-5.33-4.03-5.11-3.59.22.44,4.24,6.09,4.24,6.09,0,0-5.22-1.09-6.85-3.04-1.63-1.96-7.18-3.48-6.2-2.94.98.55,5.54,4.13,5.98,4.57.44.43-3.48-.11-3.48-.11l1.63,1.53-2.07,3.26s1.09-1.73,3.91-.65c2.83,1.09,1.63,1.85,1.63,1.85l.54,1.31-2.28-.54,1.63,2.28-4.24-2.07,3.37,3.81-1.85.11-.22,1.63h-2.18s2.18,1.96,2.94,2.5c.76.54,1.96-.65,1.96-.65l.98,1.3s-1.3.44-2.17.44-4.46-1.19-4.46-1.19c0,0,.44,2.17,2.5,2.28,2.06.11,2.28,1.52,1.3,1.3-.98-.22-1.96.32-1.96.32l.87.76.33.98-1.63.22,1.85.65-.11,1.85s-2.28-2.28-1.85-.65c.44,1.63,2.83,1.63,2.83,1.63l-1.96,1.64,3.26-.33.44.76-1.74.11s.76.21,1.52.65c.76.44-4.68.87-4.68.87,0,0,1.74.66,2.5.76.76.11,4.46,2.61,4.46,2.61,0,0-5.66-2.61-2.5.11,2.36,2.03-1.01.9-2.26.43,1.26.59,2.02,1.8,3.45,2.73,1.52.98,5.33,2.49,6.96,4.89,1.63,2.4,6.42,3.48,9.57,4.13,3.15.65,15.01.32,17.94-.98,2.54-1.12,5.82-2.34,6.79-3.06-.57.87-1.79,2.96-1.79,2.96,0,0,1.52-.11,3.37-1.95,1.85-1.85,6.09-6.75,6.85-10.66s.22,1.85,2.94-4.13c2.72-5.99,2.72-4.79,6.42-9.35,3.7-4.57,5-5.54,5.11-8.16.11-2.61-.87-3.04,1.52-4.78,2.39-1.74,1.52-2.07,4.13-7.18,2.61-5.11,2.28-5.65,2.39-6.63.11-.98-1.09-.11,1.96-6.3,3.05-6.2,1.74-3.27,4.24-6.2,2.5-2.93,6.09-7.17,6.96-8.59.87-1.41,3.16-2.28,4.35-2.83,1.19-.54,3.15.11,3.91-3.7.76-3.8-1.09-2.39,2.28-5.33,3.37-2.94,1.41-1.63,4.68-5.11,3.26-3.47,3.48-4.67,4.78-6.09,1.3-1.41,2.28-2.82,2.28-2.82,0,0,3.81,8.26,20.33,18.59,16.53,10.33,34.15,19.03,34.8,26.1.65,7.07,1.2,16.74-.76,23.49-1.96,6.74-3.45,14.01-1.63,17.18,3.37,5.87,14.79,7.5,14.79,7.5,0,0-1.2,5.76.98,9.13,2.18,3.37,5.11,5.33,6.2,7.17,1.09,1.85,8.59,12.72,10.22,14.9,1.63,2.18,3.15,3.26,3.26,4.03.11.76.54,2.39.54,2.39l1.52,1.52.87,2.61.87.11s0-2.72.43-.76c.43,1.95.76,2.49.76,2.49l.43-.65,3.59,5.33s1.19,3.48,2.93,5.76c1.74,2.28,2.39,3.15,3.15,7.07.76,3.91,3.15,9.02,3.48,10.44.33,1.42,2.39,4.03,2.83,4.57.44.54,30.67-.11,30.67-.11,0,0-1.74-8.7-4.57-11.52-2.83-2.82-4.13-1.41-8.26-7.29-4.13-5.87-10.11-14.24-11.53-15.66-1.41-1.42-12.61-16.53-13.7-18.7-1.09-2.18-3.26-7.62-3.26-8.49s-.33-2.17-.33-2.17c0,0,2.93.44,3.37,1.3.44.87,1.09,1.74,1.52,1.96.43.22,1.96.98,2.07,1.53.11.54,1.3,1.52,2.93,4.57,1.63,3.04,5,7.61,4.02,4.89-.98-2.71,1.2-2.71,1.2-2.71l.87,2.83s2.28,4.13,2.07,2.82c-.22-1.31-.33-2.82.76-1.08,1.09,1.73,2.39,5.65,2.39,5.65,0,0,1.2-.11,1.2-.76s.65,0,.87.55c.21.55,2.39,2.28,2.39,2.28l1.09,1.41,1.19,1.96.87.44.11,3.37s13.27,5.99,17.83,6.2c4.57.22,7.83.87,7.07-4.13-.76-5-1.85-9.03-2.5-10.66-.65-1.63-1.09-3.48-1.09-3.48,0,0,.87-.65.54-1.2-.33-.54-.11-1.62-.11-1.62,0,0,.98.76.76,0-.22-.77,0-1.2-.54-2.94-.54-1.74-2.61-3.7-3.05-4.34-.43-.66-1.95-1.85-1.95-1.85l.22-.77s-1.09-1.19-2.29-2.17c-1.19-.98-.76,0-2.39-1.52-1.63-1.52-4.35-3.26-5-4.9-.39-.98-.67-1.68-.82-2.09l-.16-.41.76-.33s-1.09-1.74-1.31-2.18c-.22-.44-2.06-1.85-2.06-1.85l-2.18-.54s-3.48-1.74-5.65-1.74-2.94-.65-5.22-1.08c-2.28-.44-9.35-1.96-15.22-4.57-5.87-2.61-9.57-4.24-9.57-4.24,0,0,1.63-16.96,1.3-20.88-.33-3.91-1.3-12.4-1.19-16.86.11-4.46.11-10.01.11-10.01,0,0,2.94-6.74,3.26-9.46.33-2.72,3.74-11.21,3.74-11.21,0,0,13.05,3.33,42.08,12.61,28.57,9.13,56.62,14.47,56.62,14.47,0,0,2.82,5.33,5.11,6.52,2.28,1.19,6.85.87,6.85.87l.76.32s9.02-.1,13.81,0c4.78.11,17.4-.21,21.42-.65,4.02-.44,7.28-.98,12.72.11,5.44,1.08,5.33,2.18,5.33,2.18l.11,1.74s-.43,2.94-1.74,2.94-1.3-.76-2.28.54c-.98,1.31-1.3,2.29-1.3,2.29,0,0-.55-1.95-1.85-2.18-1.31-.21-2.72-.11-2.72-.11,0,0,.1,3.05-.66,3.7-.75.66-2.28.77-2.82.44-.54-.32-1.63-.98-3.04-1.96-1.41-.98-2.5-1.85-2.5-1.85,0,0-2.61-.54-3.26-.11-.65.43-10.34,4.03-13.6,4.9-3.26.86-6.74,2.94-6.74,2.94l-.55,1.08-.76.22s-.55.87,1.41,2.4c1.96,1.52,15.01,7.72,16.97,9.46,1.95,1.74,3.8,5.12,5.65,5.76,1.85.65,6.2,1.41,7.39.98,1.2-.44,11.1-9.35,14.79-12.18,3.7-2.82,13.81-9.25,16.2-10.87,2.4-1.64,2.61-1.96,2.82-3.15.22-1.2.98-6.75.98-6.75,0,0,.11-4.02,0-5.76-.11-1.74-.44-2.07-.65-4.35-.22-2.28-1.19-3.91-1.19-3.91,0,0-3.91-2.82-6.63-3.91-2.72-1.09-16.42-5.66-20.45-7.29-4.03-1.63-7.39-3.26-9.13-3.91-1.74-.65-4.78-2.61-4.78-2.61,0,0,12.72,5.33,15.98,6.42,3.26,1.08,20.87,6.96,22.18,7.72,1.31.76,3.15,2.5,3.15,2.5,0,0,6.21-.65,7.18-.98.98-.32,11.85-4.35,14.68-4.67,2.82-.33,8.8-.87,10.11-.33,1.31.54,1.2,1.52,3.15,2.5,1.95.98,2.93,1.09,2.93,1.09,0,0-.32,3.8.66,5.21.98,1.42,1.85,2.83,1.85,2.83,0,0-.54,2.28-1.96,2.5-1.41.22-1.41-.22-2.61.76-1.2.98-1.85,2.39-1.85,2.39l3.16-2.07.75.66s.77,1.63-.98,1.63-2.72.44-2.72.44c0,0-4.24.1-4.78-.22-.55-.33-5.87,0-4.36.32,1.53.33,3.38.66,3.38.66,0,0-.44.76-1.31.76s-4.9-.32-6.09.32c-1.19.66-5.22,3.82-5.22,3.82,0,0,4.79-2.4,6.42-2.51,1.64-.11-1.73,1.09-1.73,1.09,0,0-3.59,1.96-4.46,3.81-.87,1.85,2.72-1.85,4.13-2.5,1.42-.65,2.28.22,2.28.22,0,0-1.52.65-2.39,1.31-.87.65-1.85,2.06-1.85,2.06l3.05-1.85-.65,1.74-1.74,1.2,2.39-.77s-1.09,2.5-1.85,2.83c-.76.33-1.09.43.1,1.2,1.2.76.87,1.52.87,1.52l-1.74.22,1.31,2.07s-2.07,1.2-2.83,1.96c-.77.76-1.85,1.63-1.85,1.63l3.37-1.31s.43.65-.11,1.2c-.54.54-1.31,2.28-1.85,2.93-.54.65-.98,1.64-.98,1.64l.11,1.41-.65,1.2-.54.86-.87.77s.22,7.39.55,8.59c.32,1.19,2.61,10.11,5.21,10.65,2.61.54,8.92-6.96,11.64-8.26,2.72-1.31,6.85-3.26,8.38-4.9,1.52-1.62,3.48-5.44,4.24-5.75.77-.33,4.57-3.16,4.57-3.16,0,0,1.96-.76,2.61-1.2.65-.44,5.33-2.17,5.76-4.13.44-1.95.98-4.13.98-5s-.98-10.65-1.42-13.26c-.43-2.61-1.63-8.59-1.52-9.46.11-.87-.54-7.5-.65-8.7-.11-1.19,1.41-5.54,0-8.92-1.41-3.37-8.26-13.48-13.05-14.57-4.78-1.08-13.04-1.31-18.04-1.52-5-.22-15.34-.77-17.73-1.74-2.39-.98-3.05-.98-3.05-.98,0,0,5.23-15.34,2.61-26.1-2.61-10.77-8.59-24.79-8.59-29.36s7.8-40.92,9.68-44.15c0,0,3.04-2.94,5.87-2.39,2.83.54,1.96,1.85,5.98,2.94,4.03,1.09,9.56,2.42,10.99,3.37,1.63,1.09,7.5,5.33,8.81,6.53,1.3,1.2,4.34,3.59,5.75,4.13,1.42.54,4.57,1.63,4.79,2.5.21.87,1.74,6.63,2.72,7.5.98.87,4.46.54,6.96.76,2.5.22,2.94.76,4.13.65,1.19-.11,3.37-1.41,3.37-1.41,0,0-1.62-.87.22-.65,1.85.22,2.17.33,3.48-.44,1.3-.76,2.71-3.04,2.94-4.35.21-1.31-.07-4.13-.07-4.13,0,0,2.24-.6,4.1-3.2,1.85-2.6,2.83-4.33,1.26-6.13-1.57-1.8-2.92-6.29-4.49-8.54Zm-39.89-28.59c-2.28.64-4.98-1.06-7.25-2.77-2.28-1.7.41-1.49,1.65-2.34,1.25-.85,2.5-1.07,5.39-1.28,2.91-.21,2.49,0,2.49,0l1.04,2.34s-1.04,3.4-3.32,4.04Z"/>
  <path class="cls-1" d="m324.58,62.95c-3.58-1.3-9.46-3.2-9.95-2.92.62-.14,5.82,1.59,9.95,2.92Z"/>
  <path class="cls-1" d="m324.92,63.07s.02,0,.03,0c-.12-.04-.24-.08-.37-.12.12.04.23.08.34.12Z"/>
  <path class="cls-1" d="m321.49,61.85c.98,0-10.8-5.35-10.18-5.59-1.43.2,9.5,5.59,10.18,5.59Z"/>
  <path class="cls-1" d="m321.74,63.54c-3.27-1.53-7.26-3.41-7.11-3.5-.42.09,3.54,2.03,6.88,3.58-.7.23-1.3.51-1.74.68-.82.31-.61.71-2.14.82-.91.06-1.77.41-2.33.68,1.11.21,1.92.31,2.23.23,2.54-.61,3.45-.61,4.98-.81.51-.07,1.11-.21,1.72-.36.92.41,1.55.67,1.63.67.05,0-.52-.28-1.44-.72,1.15-.3,2.29-.64,2.87-.71.2-.02-.82-.45-2.37-1.02-.45.12-.93.2-1.5.2s-1.16.11-1.68.26Z"/>
  <path class="cls-1" d="m311.32,56.26c.34-.14,12.83,4.9,13.64,4.68.49-.13.86-.3,1.18-.46-3.62-1.22-13.35-4.43-14.81-4.22Z"/>
</svg>