<?xml version="1.0" encoding="UTF-8"?>
<svg id="Ebene_1" data-name="Ebene 1" xmlns="http://www.w3.org/2000/svg" viewBox="0 0 428.04 694.73">
  <defs>
    <style>
      .cls-1 {
        fill: none;
        stroke: #fff;
        stroke-linejoin: round;
        stroke-width: 5px;
      }
    </style>
  </defs>
  <polygon class="cls-1" points="219.97 188.59 361.7 2.5 264.87 217.26 425.54 318.97 424.45 354.13 382.8 387.13 369.82 372.52 309.77 364.41 259.46 380.09 334.11 501.27 380.64 516.96 415.8 564.56 204.01 526.16 58.76 692.23 86.35 546.71 59.84 551.58 91.22 509.39 65.25 520.75 84.73 472.06 23.6 458.53 53.89 434.19 2.5 453.67 61.47 388.21 25.76 392.54 79.86 318.97 49.56 321.13 78.78 301.11 52.27 290.83 81.21 276.23 106.91 219.43 120.97 157.76 157.22 199.41 149.64 178.85 171.28 123.14 191.84 158.3 188.59 181.56 219.97 188.59"/>
  <polyline class="cls-1" points="84.73 472.06 334.11 501.27 86.35 546.71"/>
  <polygon class="cls-1" points="89.6 471.52 53.89 434.19 61.47 388.21 89.6 471.52"/>
  <polyline class="cls-1" points="81.21 276.23 259.46 380.09 89.6 471.52 91.22 509.39 204.01 526.16"/>
  <polyline class="cls-1" points="81.21 276.23 79.86 318.97 236.6 366.84 61.47 388.21"/>
  <line class="cls-1" x1="80.4" y1="301.65" x2="134.36" y2="306.93"/>
  <polyline class="cls-1" points="106.91 219.43 137.47 235.12 89.87 281.64"/>
  <polyline class="cls-1" points="120.97 157.76 137.47 235.12 157.22 199.41 294.22 236.76 248.91 269.74 346.82 271.09 369.82 372.52 422.02 316.53"/>
  <line class="cls-1" x1="424.45" y1="354.13" x2="369.82" y2="372.52"/>
  <polyline class="cls-1" points="346.82 271.09 309.77 364.41 248.91 269.74 157.22 199.41 181.29 191.84 171.28 123.14"/>
  <polyline class="cls-1" points="227.27 278.12 259.46 380.09 137.47 235.12 227.27 278.12 248.91 269.74"/>
  <line class="cls-1" x1="210.23" y1="270.01" x2="227.54" y2="252.97"/>
  <line class="cls-1" x1="181.29" y1="191.84" x2="188.59" y2="181.56"/>
  <polygon class="cls-1" points="264.87 217.26 225.11 217.8 219.97 188.59 264.87 217.26"/>
  <polyline class="cls-1" points="219.97 188.59 295.16 148.83 255.67 142.07 305.44 126.11 281.37 108.26 315.99 103.39 300.3 83.64 322.75 87.7 318.29 60.11 330.33 71.2 325.73 50.38 339.25 49.83 334.11 40.1 347.1 34.15 345.2 24.41"/>
</svg>