<?xml version="1.0" encoding="UTF-8"?>
<svg id="Ebene_1" data-name="Ebene 1" xmlns="http://www.w3.org/2000/svg" viewBox="0 0 560.72 338.93">
  <defs>
    <style>
      .cls-1 {
        fill: #ffffff;
      }
    </style>
  </defs>
  <path class="cls-1" d="m10.78,255.18h-.58s-.87.74.58,0Z"/>
  <path class="cls-1" d="m500.2,301.98s.3-2.69-.3-6.26c-.59-3.58-1.49-1.49-3.57-2.98-2.09-1.49-3.28-2.39-3.28-2.39l.89-4.17-3.58,3.28h-2.38v-2.38l-2.09,2.09-.89-3.28v-1.79s-4.77-.3-8.95-2.08c-4.17-1.79-11.32-12.82-11.32-12.82,0,0,1.19-3.87,2.68-5.66,1.5-1.79,2.09-5.36,4.77-8.05,2.69-2.68,4.18-3.57,5.66-5.37,1.5-1.79.9-25.34.9-29.2s3.28-8.64,3.87-11.33c.6-2.68-4.77-12.81-7.15-16.69-2.38-3.88-9.84-4.77-16.09-5.37-6.26-.59-27.72-8.05-27.72-8.05,0,0,4.17-13.11,5.36-25.63,1.19-12.52-12.22-28.91-13.11-31-.89-2.09-2.39-22.06-1.79-24.15.59-2.08.59-7.74.59-7.74l1.49.59s-.6,5.07-.6,6.26,2.09.6,4.47,2.38c2.38,1.79,5.06,5.07,5.96,7.15l3.58,8.35,2.69,2.68s5.66,2.38,7.15,2.38h1.79l.6,3.28,3.57,2.98,5.07-.89,4.16-5.06s2.98-1.79,4.77-2.38c1.79-.6,3.58-2.69,3.88-5.37.3-2.69-3.57-12.52-4.17-14.61-.6-2.08-6.26-28.31-6.56-30.1-.29-1.79.3-4.77,1.79-7.15,1.49-2.38,2.09-2.38,1.49-4.47-.08-.29-.27-.74-.51-1.28l97.39-34.37-104.12,15.1c-.77-4.59-1.71-9.85-1.71-9.85,0,0,1.19-3.28,2.69-6.56,1.49-3.28-.89-5.06-1.19-6.26-.3-1.19.59-5.66-.89-5.66s-2.69.6-5.37,3.58c-2.69,2.98-2.09,3.87-2.09,3.87,0,0-6.85-4.17-10.14-6.25-3.28-2.09-18.48-6.56-24.14-8.35-5.67-1.79-20.57-.6-26.53,0-5.96.6-8.05.3-8.05.3,0,0,7.15,2.38,4.78,3.28-2.39.89-4.78,1.19-7.16,1.19h-12.52s8.05,4.47,6.86,4.77c-1.2.3-4.47.6-11.03,0-6.56-.6-26.23,3.28-26.23,3.28,0,0,17.59-.89,23.84-.3,6.26.59,6.26,1.49,1.79,2.68-4.47,1.2-13.11,1.79-10.73,2.09,2.38.3,12.22,1.19,12.22,1.19,0,0-5.37,1.79-9.84,2.38-4.47.6-27.42,2.69-27.42,2.69,0,0,5.96.89,15.2,2.38,6.64,1.07,9.9-.17,10.73-.6-1.19.89-5.37,8.64-7.15,9.24-1.79.59-19.97,8.34-19.97,8.34l19.37-2.98-11.32,7.75s5.66-2.08,12.22-4.47c6.56-2.38,6.25,0,3.57,2.68-2.68,2.68-14.01,10.13-17.88,11.92-3.88,1.79-19.08,5.06-19.08,5.06,0,0,16.1-1.79,19.08-1.48,2.98.3-3.88,1.79-6.86,2.38-2.98.59-5.96,3.28-3.58,2.68,2.38-.6,8.35.89,9.54.6,1.19-.3,2.38,1.48,2.38,1.48l-7.75,5.96h4.77s-3.27,3.88-4.47,4.17c-1.2.3-8.35,1.49-8.35,1.49,0,0,11.92,2.98,8.05,8.05-3.88,5.07-27.12,16.69-42.02,19.38-14.9,2.68-33.38,1.49-45.31-1.79-11.92-3.28-27.12-2.39-42.62.89-15.5,3.28-35.17,21.75-42.32,24.14-7.15,2.38-10.13,3.88-13.71,5.37-3.58,1.49-19.67,20.26-25.04,27.12-5.36,6.86-18.48,18.78-18.48,18.78,0,0-2.39,1.19-7.75.3-5.36-.89-8.35-.6-10.43-.89-2.09-.3-7.45,1.2-14.01,3.57-4.44,1.62-8.87,6.64-10.54,8.71,2.71-3.11,12.99-4.54,15.6-4.83,2.68-.3.3,3.58.3,3.58,0,0,3.58-1.49,5.07-1.49s5.36-.6,5.36-.6l-4.47,4.47c-1.79,1.79-18.18,8.94-16.39,8.94s10.73-3.88,10.73-3.88l-2.38,5.96-3.58,3.57.59-2.98s-2.38,2.08-7.15,4.77c-4.77,2.68-4.47,4.77-16.39,8.94-2.88,1.01-4.76,1.63-5.97,2,1.24.33,3.24,1.03,2.39,1.87-1.19,1.19-6.26,3.28-6.26,3.28,0,0,3.58.89,2.09,1.79-1.49.89-6.56,2.69-10.13,5.37-3.58,2.68-9.54,12.82-9.54,12.82,0,0,2.98-3.28,6.56-6.26,3.58-2.98,8.64-.6,7.15.89-1.49,1.49-2.68,2.38-2.68,2.38h4.77s-2.09,2.09-9.83,6.86c-2.77,1.71-4.28,2.57-5.08,2.98h5.38s-.59,1.49-8.35,6.26c-3.37,2.08-4.88,2.96-5.66,3.28,0,0-.67.47.15.03.63.13,2.93.68,1.64,1.46-1.49.89-3.87,8.64-3.87,8.64l3.28-3.88s11.03-5.96,9.84-4.18c-1.19,1.79-5.96,6.26-5.96,6.26,0,0,8.35-4.47,6.85-1.79-1.49,2.68-5.36,7.46-7.45,8.64-2.09,1.2-4.17,3.28-4.17,3.28,0,0,6.26-.3,4.77.3-1.49.6-5.96,5.07-5.96,5.07,0,0,4.77-1.49,2.98.6-1.79,2.08-2.68,5.66-3.88,7.74-1.19,2.09.9,7.75.9,7.75,0,0,2.38-5.07,3.58-8.05,1.19-2.98,4.17-5.06,7.75-8.34,3.58-3.28,3.88-2.69,3.88-2.69l1.49,7.15s.59-5.06,1.49-7.15c.89-2.09,10.13-9.83,14.6-16.39,4.47-6.56,12.22-9.83,15.8-12.22,3.58-2.38,8.64-9.83,10.43-13.11,1.79-3.28,5.06-4.47,10.43-6.26,5.37-1.79,3.28-2.09,7.45-6.86,4.17-4.77,11.92-8.94,14.31-11.03,2.38-2.09,15.2-6.56,15.2-6.56,0,0-1.2,4.47-2.68,7.15-1.49,2.68-5.07,4.17-5.07,4.17,0,0,4.47.3,8.05-1.2,3.58-1.48,3.58-6.56,6.86-10.73,3.28-4.17,9.24-10.73,9.24-10.73l1.49,1.79,4.17-2.98s0,2.09-.3,5.37c-.3,3.28-5.66,15.8-9.24,21.16-3.58,5.37-23.84,22.95-25.93,25.33-2.09,2.38-.59,8.35-.89,15.8-.3,7.46-3.28,20.87-7.15,28.91-3.88,8.05-2.09,4.17-2.09,4.17l-2.38,3.58s-2.38,2.39-10.73,2.68c-8.35.29.89,1.79,4.17,1.79s-4.47.89-7.75,1.79c-3.28.9-1.79,2.98-1.79,2.98,0,0,.6,2.69-.3,5.66-.89,2.98-1.49,19.08-1.49,19.08l9.84-3.87s12.22-1.49,17.58-4.77c5.36-3.28,3.88-5.67,4.47-8.95.6-3.28,7.15-28.31,8.35-31,1.19-2.68,13.71-23.25,13.71-23.25,0,0,3.28-3.88,12.52-13.12,9.24-9.24,4.47-7.45,5.96-9.24,1.49-1.79,15.2-9.54,16.09-12.52.89-2.98,18.18-14.61,19.67-16.99,1.49-2.38,5.07-5.06,6.56-5.96,1.49-.89,2.09-.3,2.09-.3l2.38,2.69s10.73,6.86,19.97,13.11c9.24,6.26,19.37,23.55,20.86,29.51,1.49,5.96,3.28,28.91,3.28,31.29s2.98,2.98,9.54,5.96c6.56,2.98,19.07,22.65,24.14,27.72,5.07,5.06,7.45,4.47,7.45,4.47l2.38,3.28.6,5.37s4.47,3.28,5.96,3.28,26.23-.59,25.04-2.38c-1.19-1.79-4.47-8.64-6.25-9.54-1.79-.89-1.79-3.28-7.46-7.45-5.66-4.17-25.93-24.74-28.32-28.02-2.38-3.28-2.68-5.37-4.47-9.24-1.79-3.88-5.96-20.86-5.37-23.84.6-2.98-2.98-16.69-2.98-18.78v-20.26l2.68-2.09s14.01,1.79,21.16,3.57c7.15,1.79,27.42,2.69,46.5.6,19.07-2.08,68.55-11.62,68.55-11.62,0,0,7.75,7.45,16.4,13.41,8.64,5.96,28.02,30.7,29.5,32.49,1.49,1.79,8.64,13.41,10.43,16.99,1.79,3.57,4.18,13.11,6.26,14,2.09.9,6.86-3.57,6.86-3.57,0,0,3.88,4.17,5.96,6.56,2.09,2.38,14.9,15.8,14.9,15.8,0,0,2.38,5.37,3.58,7.15,1.19,1.79,2.98.6,5.06-.59,2.09-1.19-1.19,9.24-1.19,11.92s2.98,2.68,5.96,2.68,25.64-3.28,25.64-3.28l-7.16-10.73-8.34-7.45Zm-68.47-247.44s5.9.94,7.54.82c1.65-.12,2.48,1.53,2.48,2.59s-.82,3.54-1.42,4.01c-.59.47-.12,1.06-2.36.23-2.24-.82-2.47-.82-4.59-3.42-2.13-2.59-1.66-4.24-1.66-4.24Zm28.88,176.29c-1.46,1.82-1.82,2.01-1.82,2.01,0,0-2.19.37-3.28-.55-1.1-.91-3.84-2.19-3.84-2.19l-4.56,2.37-1.83,2.2-2.73-.36s-10.41-12.97-12.24-16.43c-1.83-3.47-2.74-6.21-2.74-6.21l.55-2.01s6.75.73,13.87-.91c7.12-1.64,8.03-1.82,11.86-1.64,3.84.18,9.68-.73,10.96,2.55,1.28,3.28.36,10.22.18,11.87-.18,1.64-2.92,7.49-4.38,9.31Z"/>
  <path class="cls-1" d="m31.36,223.21c-.51-.14-.88-.21-.88-.21,0,0-2.92,1.37.88.21Z"/>
</svg>