<?xml version="1.0" encoding="UTF-8"?>
<svg id="Ebene_1" data-name="Ebene 1" xmlns="http://www.w3.org/2000/svg" viewBox="0 0 557.63 479.27">
  <defs>
    <style>
      .cls-1 {
        fill: #fff;
      }
    </style>
  </defs>
  <g>
    <g>
      <g>
        <path class="cls-1" d="m191.37,81.35s0-1.22-1.36-1.22c-1.22,0-1.22,1.22-1.22,1.22v48.72s0,1.08,1.36,1.08,1.22-1.08,1.22-1.08v-48.72Z"/>
        <path class="cls-1" d="m0,0v200.25h548.78V0H0Zm72.3,59.14l64.86-20,64.97,20v5.85l-64.97-19.73-64.86,19.73v-5.85Zm118.53,5.86h-15.79l-37.89-11.57-38.58,11.57h-15.79l54.37-16.61,53.68,16.61Zm-118.54,3.51h129.85v5.44H72.29v-5.44Zm122.35,61.56s0,4.09-4.77,4.09c-4.49,0-4.49-4.09-4.49-4.09v-48.72s0-4.08,4.76-4.08,4.49,4.08,4.49,4.08v48.72h.01Zm-26.13-49.94c-1.22,0-1.22,1.23-1.22,1.23v48.72s.2,1.08,1.22,1.08c1.09,0,1.09-1.08,1.09-1.08v-14.3h3.4v14.3s0,4.08-4.49,4.08-4.35-4.08-4.35-4.08v-48.72s0-4.09,4.35-4.09,4.49,4.09,4.49,4.09v12.79h-3.4v-12.79s0-1.23-1.09-1.23Zm-21.35,0c-.94,0-.81,1.22-.81,1.22v12.81c0,4.2,5.31,16.93,5.31,23.6v12.31s-.03,4.09-4.51,4.09-4.35-4.09-4.35-4.09v-14.29h3.53v14.29s0,.95.89,1.02c.88.07.88-1.02.88-1.02h.02v-13.13c0-5.52-5.31-17.56-5.31-24.7v-10.89s0-3.94,4.49-4.08c4.49-.14,4.36,4.08,4.36,4.08v12.79h-3.54v-12.79s-.02-1.22-.96-1.22Zm-16.77,22.17v3.13h-3.67v25.72h4.9v3h-8.71v-56.9h7.48v2.86h-3.67v22.19h3.67Zm-20.13-25.04v56.89h-2.85l-3.41-34.2v34.2h-2.72v-56.89h2.72l3.41,30.41v-30.41h2.85Zm-25.99,53.9c1.22,0,1.22-.95,1.22-.95v-52.94h3.4v52.8s.27,4.09-4.35,4.09-4.62-4.09-4.62-4.09h0v-52.8h3.4v52.66s-.26,1.23.96,1.23Zm-11.98,5.98h129.84v5.44H72.29v-5.44Zm-7.34,9.25h144.26v5.44H64.95v-5.44Zm151.34,14.7H58.15v-5.44h158.14v5.44Zm326.89,33.56h-268.79V5.6h268.79v189.05Z"/>
      </g>
      <path class="cls-1" d="m445.74,35.01c-16.26,6.73-25.64,23.13-24.27,39.79-10.81-12.76-29.04-17.7-45.3-10.97l-1.74.71.72,1.75,10.8,26.09.72,1.74,1.74-.71c7.63-3.17,15.75-3.48,23.15-1.44-3.92,6.89-10.02,12.29-17.39,15.35-7.45,3.09-15.52,3.56-23.17,1.44-1.22-.34-2.44-.74-3.63-1.22-.6,1.11-1.16,2.24-1.65,3.4-4.11,9.63-4.28,20.65-.15,30.64,8.34,20.13,31.51,29.73,51.64,21.39,20.14-8.34,29.75-31.51,21.4-51.65-7.55-18.22,1.13-39.19,19.35-46.73l1.75-.72-.72-1.74-10.81-26.09-.71-1.75-1.74.72h.01Zm-57.01,54.23l-9.36-22.6c17.79-6.31,37.66,2.39,44.97,20.03l4.37,10.54c-10.54-9.57-25.86-13.05-39.97-7.97m26.48,3.94c8.17,3.22,15.16,9.41,19.18,17.85l-31.26,12.95-5.78-13.96c7.59-3.57,13.85-9.47,17.86-16.84m-45.91,19c8.06,2.39,16.61,2.16,24.57-.71l5.78,13.96-31.26,12.95c-3.06-8.63-2.66-17.98.91-26.19m.53,29.66l31.26-12.95,5.79,13.96c-7.61,3.58-13.86,9.48-17.87,16.84-8.16-3.22-15.15-9.41-19.17-17.85m44.21,18.32c-7.11,2.52-14.56,2.64-21.4.75,3.61-6.34,9.08-11.42,15.67-14.57l5.73,13.82Zm-2.25-15.26c6.9-2.45,14.36-2.71,21.39-.78-3.51,6.17-8.86,11.36-15.66,14.6l-5.73-13.82h0Zm23.1-4.21c-8.05-2.38-16.64-2.13-24.54.71l-5.78-13.95,31.26-12.95c3.13,8.82,2.57,18.14-.94,26.19m-2.7-44.93l-4.37-10.54c-7.31-17.64.6-37.85,17.64-45.96l9.36,22.6c-13.57,6.39-21.94,19.69-22.63,33.9"/>
    </g>
    <path class="cls-1" d="m450.66,306.76l9.85,20.94-.38.27c-7.54,5.32-16.4,8.14-25.64,8.14-24.55,0-44.52-19.97-44.52-44.53s19.97-44.52,44.52-44.52c9.26,0,18.13,2.83,25.68,8.17l.38.27-9.99,21.23-.56-.55c-4.12-4.08-9.59-6.32-15.39-6.32-12.09,0-21.92,9.84-21.92,21.93s9.83,21.92,21.92,21.92c5.84,0,11.35-2.28,15.48-6.4l.56-.56h.01Zm106.97-15.07c0,24.5-19.94,44.44-44.45,44.44s-44.45-19.94-44.45-44.44,19.94-44.45,44.45-44.45,44.45,19.94,44.45,44.45Zm-22.44.2c0-12.06-9.82-21.89-21.89-21.89s-21.89,9.82-21.89,21.89,9.82,21.89,21.89,21.89,21.89-9.82,21.89-21.89ZM.04,249.86v50.26c0,9.15,1.5,17.56,9.16,25.03,9.52,9.34,23.35,10.84,33.63,10.84s23.91-1.5,33.44-10.84c8.4-8.22,9.34-17.18,9.34-26.71v-48.58h-26.91v45.96c0,4.11-.55,9.71-4.48,13.45-2.43,2.24-6.36,3.93-11.39,3.93-5.99,0-9.35-2.25-11.21-3.93-4.31-3.92-4.68-9.71-4.68-13.45v-45.96S.04,249.86.04,249.86Zm106.49,83.32h26.9v-42.79c0-5.41.75-11.39,5.23-15.87,2.06-2.25,5.6-4.49,11.22-4.49,4.85,0,8.22,1.69,10.27,3.73,4.3,4.29,4.49,11.22,4.49,16.62v42.79h26.9v-52.69c0-6.72-.56-16.62-8.4-24.47-7.1-7.09-16.62-8.4-23.91-8.4-7.85,0-17.56,1.68-25.78,12.14v-9.91h-26.9v83.32l-.02.02h0Zm191.31-39.79c0-10.27-1.87-23.35-11.77-33.81-10.28-10.84-23.74-12.52-33.07-12.52s-21.86,1.87-31.95,11.96c-8.41,8.59-12.7,20.92-12.7,32.88,0,13.83,5.22,24.85,12.51,32.13,9.71,9.71,20.74,11.96,33.26,11.96,9.34,0,18.3-1.31,26.34-6.16,4.86-2.99,12.33-9.15,16.07-20.93l-25.42-2.61c-2.24,4.67-5.41,6.72-5.78,6.91-2.81,1.69-6.92,2.43-10.84,2.43s-9.71-.74-13.82-5.23c-3.37-3.74-5.05-9.72-5.05-14.2h62.22v-2.81Zm-61.29-13.26c.75-3.73,2.62-6.72,4.68-8.97,2.61-2.61,6.72-5.42,13.64-5.42,5.42,0,9.71,1.87,12.7,4.68,3.93,3.74,5.24,8.96,5.42,9.71h-36.44Zm139.74-25.96c-6.72-3.93-15.32-7.11-27.65-7.11-7.67,0-17.76,1.5-25.22,8.4-4.85,4.49-8.03,11.21-8.03,19.25,0,6.35,2.05,11.02,5.98,15.13,3.56,3.55,8.59,6.16,13.46,7.66l6.72,2.05c3.93,1.12,6.36,1.86,8.22,2.98,2.43,1.5,2.98,3.37,2.98,4.86,0,2.06-1.11,4.11-2.81,5.41-2.42,1.88-6.72,1.88-8.4,1.88-3.56,0-7.48-.75-11.21-2.62-2.81-1.3-6.55-3.92-9.16-6.16l-11.39,18.12c10.83,9.53,22.98,11.96,34.19,11.96,8.77,0,18.86-1.3,27.09-9.52,3.73-3.75,8.59-10.83,8.59-21.86,0-6.36-1.68-11.39-6.55-15.89-4.29-3.92-9.15-5.79-13.82-7.28l-7.1-2.25c-3.37-1.12-6.16-1.68-8.03-2.8-1.31-.75-2.61-1.86-2.61-3.73,0-1.31.74-2.81,1.68-3.74,1.69-1.69,4.86-2.43,7.66-2.43,5.23,0,10.65,2.25,14.76,4.68l10.65-17h0Z"/>
  </g>
  <path class="cls-1" d="m.3,407.46v-34.37h7.14l8.87,14.74c2.29,3.82,4.28,7.8,5.87,11.52h.1c-.41-4.59-.56-9.03-.56-14.28v-11.98h5.81v34.37h-6.48l-8.98-15.09c-2.19-3.77-4.49-8.01-6.17-11.88l-.15.05c.25,4.44.31,8.97.31,14.63v12.29H.3Zm38.96-10.66c.15,4.49,3.67,6.43,7.65,6.43,2.91,0,5-.41,6.88-1.12l.92,4.33c-2.14.87-5.1,1.53-8.67,1.53-8.06,0-12.8-4.95-12.8-12.54,0-6.88,4.18-13.36,12.14-13.36s10.71,6.63,10.71,12.09c0,1.17-.1,2.09-.2,2.65h-16.63Zm10.91-4.41c.05-2.29-.97-6.07-5.15-6.07-3.88,0-5.51,3.52-5.76,6.07h10.91,0Zm18.45-16.88v7.09h5.97v4.69h-5.97v10.96c0,3.01.82,4.59,3.21,4.59,1.07,0,1.89-.15,2.45-.31l.1,4.79c-.92.36-2.55.61-4.54.61-2.29,0-4.23-.76-5.41-2.04-1.33-1.43-1.94-3.67-1.94-6.93v-11.68h-3.57v-4.69h3.57v-5.61l6.12-1.48h0Zm9.23,28.32l9.33-11.93c1.27-1.53,2.35-2.75,3.67-4.18v-.1h-12.08v-5h19.73v3.83l-9.13,11.68c-1.22,1.48-2.4,2.91-3.67,4.23v.1h13.11v5h-20.96v-3.62h0Zm30.28-21.23l2.6,11.27c.56,2.65,1.12,5.35,1.58,8.06h.1c.51-2.7,1.33-5.46,2.04-8.01l3.21-11.32h5.1l3.11,11.02c.76,2.91,1.43,5.61,1.99,8.31h.1c.41-2.7.97-5.41,1.63-8.31l2.75-11.02h6.17l-7.8,24.83h-5.81l-2.96-10.1c-.77-2.6-1.33-4.95-1.89-7.96h-.1c-.51,3.06-1.17,5.51-1.89,7.96l-3.16,10.1h-5.86l-7.34-24.83h6.43,0Zm38.41,14.18c.15,4.49,3.67,6.43,7.65,6.43,2.91,0,5-.41,6.88-1.12l.92,4.33c-2.14.87-5.1,1.53-8.67,1.53-8.06,0-12.8-4.95-12.8-12.54,0-6.88,4.18-13.36,12.14-13.36s10.71,6.63,10.71,12.09c0,1.17-.1,2.09-.2,2.65h-16.63Zm10.91-4.41c.05-2.29-.97-6.07-5.15-6.07-3.88,0-5.51,3.52-5.76,6.07h10.91Zm11.19-1.78c0-3.37-.05-5.76-.2-8.01h5.46l.2,4.74h.2c1.22-3.52,4.13-5.3,6.78-5.3.61,0,.97.05,1.48.15v5.92c-.51-.1-1.07-.2-1.83-.2-3.01,0-5.05,1.94-5.61,4.74-.1.56-.2,1.22-.2,1.94v12.85h-6.27v-16.83h-.01Zm24.42,2.91h.1c.61-.97,1.33-2.04,1.99-2.91l6.02-8.01h7.55l-9.18,10.15,10.5,14.69h-7.7l-7.14-10.96-2.14,2.5v8.46h-6.27v-36.21h6.27v22.28h0Zm54.97-22.26v29.22c0,2.55.1,5.3.2,6.99h-5.61l-.25-3.93h-.1c-1.48,2.75-4.49,4.49-8.11,4.49-5.92,0-10.61-5.05-10.61-12.7-.05-8.31,5.15-13.26,11.12-13.26,3.42,0,5.86,1.43,6.99,3.26h.1v-14.07h6.27,0Zm-6.27,21.72c0-.51-.05-1.12-.15-1.63-.56-2.45-2.55-4.44-5.41-4.44-4.03,0-6.27,3.57-6.27,8.21s2.24,7.85,6.22,7.85c2.55,0,4.79-1.73,5.41-4.44.15-.56.2-1.17.2-1.84v-3.72h0Zm17.61,3.84c.15,4.49,3.67,6.43,7.65,6.43,2.91,0,5-.41,6.88-1.12l.92,4.33c-2.14.87-5.1,1.53-8.67,1.53-8.06,0-12.8-4.95-12.8-12.54,0-6.88,4.18-13.36,12.14-13.36s10.71,6.63,10.71,12.09c0,1.17-.1,2.09-.2,2.65h-16.63Zm10.91-4.41c.05-2.29-.97-6.07-5.15-6.07-3.88,0-5.51,3.52-5.76,6.07h10.91Zm11.18-1.78c0-3.37-.05-5.76-.2-8.01h5.46l.2,4.74h.2c1.22-3.52,4.13-5.3,6.78-5.3.61,0,.97.05,1.48.15v5.92c-.51-.1-1.07-.2-1.84-.2-3.01,0-5.05,1.94-5.61,4.74-.1.56-.2,1.22-.2,1.94v12.85h-6.27v-16.83h0ZM6.52,434.28v20.04c0,6.73,2.81,9.84,7.04,9.84,4.54,0,7.24-3.11,7.24-9.84v-20.04h6.27v19.63c0,10.61-5.46,15.3-13.72,15.3S.24,464.77.24,453.96v-19.68h6.28Zm27.92,34.37v-34.37h7.14l8.87,14.74c2.29,3.82,4.28,7.8,5.87,11.52h.1c-.41-4.59-.56-9.03-.56-14.28v-11.98h5.81v34.37h-6.48l-8.98-15.09c-2.19-3.77-4.49-8.01-6.17-11.88l-.15.05c.25,4.44.31,8.98.31,14.64v12.29h-5.76Zm53.98-15.27h-12.95v10.1h14.48v5.15h-20.75v-34.37h19.99v5.15h-13.72v8.87h12.95v5.1Zm7.04,8.41c2.04,1.17,5.1,2.19,8.31,2.19,4.03,0,6.27-1.89,6.27-4.69,0-2.6-1.73-4.13-6.12-5.71-5.66-2.04-9.28-5.05-9.28-9.99,0-5.61,4.69-9.89,12.14-9.89,3.72,0,6.48.82,8.26,1.73l-1.53,5.05c-1.22-.66-3.62-1.63-6.83-1.63-3.98,0-5.71,2.14-5.71,4.13,0,2.65,1.99,3.88,6.58,5.66,5.97,2.24,8.87,5.25,8.87,10.2,0,5.51-4.18,10.3-13.05,10.3-3.62,0-7.39-1.02-9.28-2.14l1.38-5.2h0Zm51.19,5.79c-1.48.76-4.74,1.53-8.87,1.53-10.91,0-17.54-6.83-17.54-17.29,0-11.32,7.85-18.15,18.36-18.15,4.13,0,7.09.87,8.36,1.53l-1.38,5c-1.63-.71-3.88-1.33-6.73-1.33-6.99,0-12.03,4.39-12.03,12.65,0,7.55,4.44,12.39,11.98,12.39,2.55,0,5.2-.51,6.83-1.28l1.02,4.95h0Zm34.32-16.52c0,11.52-6.99,18.1-16.47,18.1s-15.81-7.39-15.81-17.49,6.63-18,16.32-18,15.96,7.6,15.96,17.39Zm-25.65.51c0,6.99,3.52,12.54,9.54,12.54s9.49-5.61,9.49-12.8c0-6.48-3.21-12.6-9.49-12.6s-9.54,5.76-9.54,12.85h0Zm43.62,1.29v4.33h-13v-4.33h13Zm6.14-18.15c2.24-.41,5.35-.71,9.59-.71,4.59,0,7.96.97,10.15,2.81,2.04,1.68,3.37,4.38,3.37,7.6s-1.02,5.97-2.96,7.8c-2.5,2.5-6.42,3.67-10.86,3.67-1.17,0-2.24-.05-3.06-.2v12.95h-6.22v-33.91h-.01Zm6.22,15.99c.77.2,1.79.25,3.06.25,4.69,0,7.55-2.29,7.55-6.32s-2.65-5.86-6.99-5.86c-1.73,0-2.96.15-3.62.31v11.63h0Zm21.67,1.05c0-3.37-.05-5.76-.2-8.01h5.46l.2,4.74h.2c1.22-3.52,4.13-5.3,6.78-5.3.61,0,.97.05,1.48.15v5.92c-.51-.1-1.07-.2-1.83-.2-3.01,0-5.05,1.94-5.61,4.74-.1.56-.2,1.22-.2,1.94v12.85h-6.27v-16.83h-.01Zm41.86,4.18c0,9.13-6.42,13.21-12.75,13.21-7.04,0-12.44-4.84-12.44-12.8s5.35-13.16,12.85-13.16,12.34,5.2,12.34,12.75h0Zm-18.71.25c0,4.79,2.35,8.41,6.17,8.41,3.57,0,6.07-3.52,6.07-8.52,0-3.88-1.73-8.31-6.02-8.31s-6.22,4.28-6.22,8.41h0Zm17.82,18.17c2.04-.15,3.67-.71,4.69-1.79,1.17-1.27,1.63-3.21,1.63-8.62v-20.19h6.27v21.98c0,5.15-.97,8.36-3.21,10.61-2.19,2.04-5.66,2.91-8.77,2.91l-.61-4.9h0Zm12.95-37.53c0,1.84-1.33,3.37-3.57,3.37-2.09,0-3.42-1.53-3.42-3.37,0-1.94,1.38-3.42,3.52-3.42s3.47,1.48,3.47,3.42h0Zm10.78,21.11c.15,4.49,3.67,6.43,7.65,6.43,2.91,0,5-.41,6.88-1.12l.92,4.33c-2.14.87-5.1,1.53-8.67,1.53-8.06,0-12.8-4.95-12.8-12.54,0-6.88,4.18-13.36,12.14-13.36s10.71,6.63,10.71,12.09c0,1.17-.1,2.09-.2,2.65h-16.63Zm10.91-4.41c.05-2.29-.97-6.07-5.15-6.07-3.88,0-5.51,3.52-5.76,6.07h10.91Zm17.52,1.12h.1c.61-.97,1.33-2.04,1.99-2.91l6.02-8.01h7.55l-9.18,10.15,10.5,14.69h-7.7l-7.14-10.96-2.14,2.5v8.46h-6.27v-36.21h6.27v22.28h0Zm28.33-17.98v7.09h5.97v4.69h-5.97v10.96c0,3.01.82,4.59,3.21,4.59,1.07,0,1.89-.15,2.45-.31l.1,4.79c-.92.36-2.55.61-4.54.61-2.29,0-4.23-.76-5.41-2.04-1.33-1.43-1.94-3.67-1.94-6.93v-11.68h-3.57v-4.69h3.57v-5.61l6.12-1.48h.01Zm10.83,26.18c1.43.87,4.13,1.79,6.37,1.79,2.75,0,3.98-1.12,3.98-2.75s-1.02-2.55-4.08-3.62c-4.84-1.68-6.88-4.33-6.83-7.24,0-4.39,3.62-7.8,9.38-7.8,2.75,0,5.15.71,6.58,1.48l-1.22,4.44c-1.07-.61-3.06-1.43-5.25-1.43s-3.47,1.07-3.47,2.6,1.17,2.35,4.33,3.47c4.49,1.63,6.58,3.93,6.63,7.6,0,4.49-3.52,7.75-10.1,7.75-3.01,0-5.71-.71-7.55-1.73l1.22-4.54v-.02h0Zm40.02,5c-1.33.61-3.93,1.27-7.04,1.27-7.75,0-12.8-4.95-12.8-12.65s5.1-13.26,13.82-13.26c2.29,0,4.64.51,6.07,1.17l-1.12,4.69c-1.02-.46-2.5-.97-4.74-.97-4.79,0-7.65,3.52-7.6,8.06,0,5.1,3.31,8.01,7.6,8.01,2.19,0,3.72-.46,4.95-.97l.87,4.64h-.01Zm4.59-35.42h6.32v14.79h.1c.76-1.17,1.79-2.14,3.11-2.86,1.22-.71,2.7-1.12,4.28-1.12,4.23,0,8.67,2.8,8.67,10.76v14.64h-6.27v-13.92c0-3.62-1.33-6.32-4.79-6.32-2.45,0-4.18,1.63-4.84,3.52-.2.51-.25,1.17-.25,1.89v14.84h-6.32v-36.21h0Zm51.21,28.74c0,2.96.1,5.41.2,7.45h-5.51l-.31-3.77h-.1c-1.07,1.78-3.52,4.33-7.96,4.33s-8.67-2.7-8.67-10.81v-14.58h6.27v13.51c0,4.13,1.33,6.78,4.64,6.78,2.5,0,4.13-1.79,4.79-3.37.2-.56.36-1.22.36-1.94v-14.99h6.27v17.39h.02,0Zm6.79-28.76h6.32v36.21h-6.32v-36.21Zm17.67,25.55c.15,4.49,3.67,6.43,7.65,6.43,2.91,0,5-.41,6.88-1.12l.92,4.33c-2.14.87-5.1,1.53-8.67,1.53-8.06,0-12.8-4.95-12.8-12.54,0-6.88,4.18-13.36,12.14-13.36s10.71,6.63,10.71,12.09c0,1.17-.1,2.09-.2,2.65h-16.63Zm10.91-4.41c.05-2.29-.97-6.07-5.15-6.07-3.88,0-5.51,3.52-5.76,6.07h10.91Zm11.19-2.4c0-2.86-.05-5.25-.2-7.39h5.51l.31,3.72h.15c1.07-1.94,3.77-4.28,7.9-4.28s8.82,2.8,8.82,10.66v14.74h-6.27v-14.02c0-3.57-1.33-6.27-4.74-6.27-2.5,0-4.23,1.79-4.9,3.67-.2.56-.25,1.33-.25,2.04v14.58h-6.32v-17.44h-.01Z"/>
</svg>