<svg xmlns="http://www.w3.org/2000/svg" width="1724" height="266" viewBox="0 0 1724 266"><style>.a{fill:#FFFFFE;}.b{fill:#00376D;}.c{fill:#DCCF89;}</style><path d="M0 0h1724v231.4c-223.7 0-447.3 0-671 0 0 0.4 0 1.4 0 1.8 223.7 0 447.3 0 671 0V266H0V0z" class="a"/><path d="M308.7 32.4c25-9.2 49.9-18.7 75.1-27.5 -21.7 13.4-43.8 26.3-65.7 39.5 0 1.2 0.1 2.3 0.1 3.5 5.9 8.9 12.4 17.5 17.1 27.2 -1.2 1.6-2.4 3.1-3.9 4.5 -0.4 1.8-0.3 4.3-2.3 5.1 -3.5 1.8-7.5 1.5-11.2 0.7 -0.8-1.6-1.3-3.3-1.9-5 -4.4-1.6-7.6-5.2-11.6-7.5 -3.1-1.5-6.6-2.1-9.7-3.5 -2-1.3-4.6 0.4-4.8 2.6 -2.2 8.4-4.2 16.8-5.3 25.4 1 6.8 4.5 13 5.5 19.8 0.6 4.9-0.7 9.8-1.7 14.5 7.3 1.9 14.9 1 22.3 2.1 4.1 0.4 6.3 4.3 8.4 7.3 2.1 2.9 0.8 6.7 1.2 10 0.3 6.6 2.9 13.3 1.5 20 -2.1 3.1-6.8 3.4-8.9 6.7 -2.2 3.7-6.7 4.7-9.6 7.6 -1.6 1.2-3 3-5.1 3 -2.2-3.2-3.5-7.3-2.9-11.2 0.5-2.3 1.3-4.4 1.9-6.7 0.9-1.6 1.4-3.3 1.5-5.2 0.3-0.2 0.8-0.7 1.1-1 -1.4-0.4-2.6-1.1-3.6-2.1 1.6-1.7 3.4-3.1 5.5-4.3 2.6-0.2 5.9 0.6 7.5-2 0.6-0.2 1.7-0.6 2.2-0.9 -0.6-1.8-1.1-3.7-1.6-5.6 -6.8-5.9-15.2 0.8-22.6 1.5 -4.4-2.7-9.3-4.2-14.3-5.6 4.6 1.8 9.6 2.7 13.7 5.8 1.8 4.3 1.5 9.3 0.4 13.7 -4.9 4.1-10.9 6.9-15.6 11.5 -2.4 1.8-4.7 5-8.1 4 -2.6-0.2-3.9-2.9-5.9-4.3 -3.6-2.6-8-4-11.5-6.8 3.7-3.1 8.5-3.9 12.8-5.6 3-1.6 5.7 1.1 8.4 2.1 0.2-0.7 0.5-2.2 0.7-2.9 0.8 0.2 2.4 0.5 3.2 0.6 1.4-1 2.6-2.1 3-3.9 -2.8-0.8-5.7-1.7-8.7-1.3 -7.6 0.9-15.3 0.8-23 0.7 -2.2-0.1-4.5 0-6.5-1 -1.1-1.1-2-2.5-2.9-3.8 -11.9-2.5-23.8-5.4-35.5-9.2 -8.3-2.7-16.6-5.3-25.1-7.5 -1.6 4.2-2.7 8.5-4 12.8 -0.6 5.6 0 11.3 0.4 16.9 0 4.1-0.5 8.1-0.7 12.2 4 1.8 8.1 3.7 12.4 4.7 3.7 1 7.6 1.3 11.1 3 1.6 0.8 1.6 2.8 2.1 4.3 3.1 3 7.3 5.5 8.7 9.8 -0.3 4.2 1.3 8 1.9 12.1 0.5 1.2-0.5 2.6-1.8 2.7 -4.8 0.2-9.2-2-13.6-3.8 -0.7-2.8-2.5-5.2-5.1-6.6 -1.5-2-3.1-3.9-4.5-5.9l0.1 2.9c-2.4-3.7-4.6-7.7-8.5-10 1.4 7.7 7.2 13.3 11.7 19.3 3.4 4 5.6 9 10 12.1 2.6 1.7 3.2 4.9 4.1 7.7 233.2 0 466.4 0 699.6 0 1.2 0 2.2 0.5 3 1.6 -52.3 0.4-104.7 0.1-157 0.2 -242.7 0-485.4 0-728 0 -4.2-0.1-8.4 0.3-12.5-0.6 1.4-0.8 2.9-1.4 4.5-1.2 56.8 0.1 113.6-0.1 170.5 0.1 -3.1-7.3-4.6-15.7-10.8-21.1 -2.9-5.6-6.9-10.4-10.4-15.5 -2.6-2.6-4.9-5.7-4.3-9.6 -3.5-1.1-8.5-2.1-9.3-6.4 -0.2-5.7 2.7-11.1 2.4-16.9 -0.2-3.5 0.4-7.9-2.8-10.3 -10.1-8.4-23.6-12.5-31.7-23.4 -2.8 4.5-7.6 7.7-9.1 12.9 -4.7 2.1-7.5 6.6-10.5 10.5C87.4 156.6 87.3 162.7 83 166.6c0 0.7 0 2 0.1 2.6 -3 4-6.4 7.8-8.7 12.3 -1.1 2.7-2.9 5.2-5 7.3 -6.5 0.7-13.3 2.8-19.6 0.3 -2.9-1.8-5.5-4.1-8.3-6 0.2-0.4 0.6-1.3 0.8-1.7 -0.7-0.3-2-0.9-2.7-1.2 0.8-0.1 2.3-0.2 3-0.2 -0.8-0.7-1.6-1.4-2.4-2.1 0.2-1.3 0.3-2.6 0.4-3.9 -0.3-0.3-1-0.8-1.3-1.1 1.1-1.6 3.1-3.4 1.2-5.3 0.8-0.2 2.5-0.5 3.4-0.7 -1.5-0.4-2.9-0.9-4.3-1.4 0.4-1 0.9-1.9 1.4-2.8 -1.1-0.9-2.2-1.8-3.2-2.8 2.9 1.1 5.5 2.9 8.2 4.4 -0.9-1.5-1.8-3-2.6-4.6 3 1.9 5.3 4.9 8.8 6 0.6-0.3 2-0.8 2.6-1 -1.1-0.7-2.3-1.4-3.4-2 0.3-0.6 0.6-1.2 0.9-1.8 -2.3-1.3-4.2-3.1-6.2-4.8 3.8 1.2 8 2.3 11.9 0.9 -0.9-1.8-1.4-3.7-1.2-5.7 -3 0.1-6.1 0.2-9.1-0.4 4.1-1.2 9.7 0.4 12.5-3.6 -2.3 1.7-4.9 2.8-7.7 2 1.5-0.8 4.4-2.3 5.9-3.1 -1.3 0-3.8 0-5.1-0.1 2.8-1.1 5.6-2.3 8.4-3.5 -2.4-0.5-4.9-1.1-7.1-2.2 1.8 0.3 5.3 0.9 7.1 1.2 -1.2-0.6-3.6-1.7-4.8-2.3 3-1.5 6.2-2.8 9.2-4.3 -1.9 0.3-5.6 1-7.5 1.4 4.3-2.9 9.7-2.7 14.2-5 -2.3 0.1-4.6 0.5-6.9 0.7 4.5-2.5 10.2-0.3 14.3-3.5 0.5-1.8 1-3.8 2.7-4.8 5.2-3.8 7.9-10.2 13.4-13.6 3.9-3 7.5-6.6 12-8.7 4.3-1.9 6.3-6.6 10-9.2 9.6-7.1 21.1-11.9 33.1-12.8 7.9-0.7 15.3 2.7 23 3.1 11.4 0.8 22.6 3 34 4.1 2.3 0.6 3.6-1.6 5.1-2.7 -4.4-0.3-9.6-0.6-12-4.9 3.3 2 6.7 4.1 10.7 3.7 1.8-2.1 3.7-4 5.6-5.9 2.7-2.6 4-6.3 6.5-9.1 -0.2-0.2-0.6-0.7-0.9-0.9 2-1.8 4-3.5 5.9-5.5 0.9-1.1 1.9-2.1 2.8-3.2 -4.4 1.4-7.6 4.9-11.1 7.8 2.6-3.3 5.5-6.5 9.4-8.4 4.9-2.4 9.1-5.8 13.4-9.1l-3-0.1c2.9-1.4 5.8-2.8 8.1-5.2 -3.3 0.9-6.5 2.3-9.9 2.8 -4.1 0.3-8.2 0.4-12.1 1.7 0.8-0.6 2.5-1.7 3.3-2.2 -1 0.2-3 0.6-4 0.8 -0.9-0.5-1.8-1-2.8-1.5 0.2-0.3 0.5-0.8 0.6-1.1 0.6 0.4 1.1 0.8 1.7 1.2 3.1-0.1 6.3 1.5 9.3 0.3 1.9-0.9 4-1 6-1.1l-3.6-0.6c3.6-1.6 7.2-3 10.9-4.5 -0.8-0.3-2.4-0.8-3.2-1.1 1.1-0.1 2.3-0.1 3.4-0.2 1-0.9 2.1-1.8 3.1-2.7 2.7-0.9 5.4-1.9 8.2-2.6 -1-0.3-3-1-4-1.3 1.6-0.3 4.9-0.8 6.6-1.1 -1.4-0.2-4.2-0.7-5.5-0.9 4.2-0.5 8.4-0.8 12.6-1.3 -2.3-0.4-4.6-0.7-6.9-1.1 3.6-0.4 7.2-0.9 10.8-1.3 3.3 0.5 6.1 2.6 9.2 3.6 -1.5-1.4-3.1-2.7-4.7-4 2.1 0.2 4.1 0.4 6.2 0.5 -2.6-2.7-6.1-1.9-9.4-1.6 2-0.9 4.1-1.5 6.2-2 -0.6-1.7-1.2-3.4-1.7-5.2 1.8 1.4 3 3.4 4.6 5.1 1.6 0.7 3.3 1 5 1.6 2-1 3.8-2.4 5.5-3.9 0.9 1.6 1.7 3.3 2.5 4.9 0.7 0.2 2.1 0.7 2.8 0.9 -0.2-2.8 1-5.1 3.3-6.6 1.8 3.9 3.5 7.9 3.3 12.2C306.8 31.2 307.7 31.8 308.7 32.4z" class="b"/><path d="M301.5 48.4c2.3-0.9 4.6-1.5 7.1-1.7 -0.2 0.8-0.5 2.4-0.7 3.2C305.7 51.6 303.5 49.2 301.5 48.4z" class="a"/><path d="M579.9 87.7c0.9-0.8 3-0.4 2.7 1.2 -0.8 20.5-0.5 41-0.4 61.5 6.2-3.9 12.8-7.9 20.3-8.8 7.1-0.9 15.2 0.2 20.7 5.3 3.7 3.7 5.9 8.9 5.9 14.2 0.2 13.4-0.5 26.7 0.5 40.1 0.3 2.4 0.4 5.4 2.8 6.7 2.8 1.3 5.9 1.2 8.9 1.5 0 1.6-0.1 3.2-0.1 4.8 -11.8-0.7-23.7-1.1-35.5 0.1 -0.2-1.5-0.9-3.1-0.1-4.5 2.8-1 6-1 8.6-2.6 2-2.1 1.8-5.3 1.9-8 -0.1-11 0.1-22.1-0.1-33.1 -0.1-6.3-3.5-12.9-9.7-15.1 -7.6-2.4-16.8-0.8-22.2 5.3 -2.5 2.7-1.9 6.6-2 9.9 0.1 11 0 22 0.1 33 0.2 2.9 0.1 6.4 2.5 8.4 2.6 1.6 5.7 1.5 8.6 2 -0.2 1.5-0.4 2.9-0.5 4.4 -11.7-0.1-23.4-0.9-35.1 0.4 0-1.5-1.1-3.3-0.1-4.6 3.1-1 6.9-0.5 9.6-2.6 2.4-3.5 1.8-8 1.9-12 -0.1-29 0.1-58-0.1-87 0.4-5-4.1-7.9-7.9-10.2 0-0.7 0-2-0.1-2.7C567.3 92.8 573.7 90.6 579.9 87.7z" class="c"/><path d="M697.9 95c7.2-2.5 14.3-5.2 21.3-8.2 0.4 6.1-0.2 12.1-0.2 18.2 0 30.7 0 61.3 0 92 0.1 3.3-0.2 7.2 2.1 9.9 2.6 2.3 6.3 1.9 9.5 2.3 -0.2 1.6-0.2 3.3-0.1 4.9 -11.9-1-23.9-1.1-35.8 0 0.1-1.6 0.1-3.3-0.1-4.9 3.2-0.5 6.8-0.1 9.4-2.3 2-2.5 1.8-5.9 2-9 0-26.7 0-53.3 0-80 -0.1-4.4 0.4-8.9-0.7-13.2 -0.9-3.5-4.6-5-7.2-7C698 97.1 697.9 95.7 697.9 95z" class="c"/><path d="M741.9 95c7.2-2.4 14.2-5.2 21.3-8.1 -0.4 35.7-0.1 71.5-0.2 107.2 0.2 4.1-0.6 8.7 1.6 12.4 2.4 2.8 6.6 2.3 9.9 2.8 -0.2 1.6-0.2 3.3-0.1 4.9 -11.9-1-23.9-1-35.8 0 0.1-1.6 0.1-3.3-0.1-4.9 3.1-0.5 6.8-0.1 9.4-2.3 2-2.5 1.9-6 2.1-9 0-26.7 0-53.3 0-80 -0.1-4.4 0.3-8.9-0.7-13.2 -0.9-3.5-4.5-5.1-7.2-7C742 97.1 741.9 95.7 741.9 95z" class="c"/><path d="M435 96c11.9-3.8 24.6-1.5 36.4 1.7 2.9 7 3.4 14.9 3.2 22.4 -1.4 0-2.8-0.1-4.2-0.1 -1.8-5.9-4.2-12.1-9.3-15.9 -5.7-4.3-13.3-4.9-20.1-3.9 -4.8 0.8-9.6 3.2-12.3 7.4 -4 6.3-4.3 14.8-0.5 21.2 3.4 5.8 8.9 10 14.6 13.4 9.6 6.2 20.4 11.4 27.2 20.9 6.7 8.9 8.2 21.1 4.8 31.6 -3.4 10.2-12.8 17.5-23 20 -13.5 3.1-28.2 1.5-40.6-4.9 -2.8-8.3-4.4-17-4.4-25.8 1.3 0 2.7 0 4 0 2.4 7.3 5.7 14.6 11.6 19.8 7.1 6.3 17.3 8.2 26.4 5.8 7-1.8 12.7-7.8 14-14.9 1-6.7 0.2-14-3.9-19.6 -3.8-5.6-9.8-9-15.3-12.6 -8.1-5.5-17.1-10.1-23.2-17.9 -6.5-7.7-9.2-18.7-6.3-28.4C416.7 106.2 425.3 98.8 435 96z" class="c"/><path d="M663.3 97.5c3.2-1.4 7.4-1.3 10.1 1.1 3.5 3 3.7 8.7 1.5 12.5 -3.6 5-12.4 5-15.7-0.5C656.5 106.2 658.6 99.6 663.3 97.5z" class="c"/><path d="M1453.3 97.3c3.2-1.2 7.4-1.1 10 1.4 3.7 3.5 3.8 10.1 0.1 13.6 -4 3.7-11.1 3.2-14.3-1.3C1446.4 106.5 1447.8 99.2 1453.3 97.3z" class="c"/><path d="M654.3 148.2c7.3-2.8 14.1-6.9 21.5-9.6 -1.3 19.5-0.6 39-0.8 58.5 0.2 3.3-0.2 7.1 2 9.8 2.4 2.1 6 1.9 9 2.5 -0.1 1.5-0.1 3.1-0.1 4.6 -11.6-0.8-23.2-0.8-34.8 0.1 0-1.6-0.1-3.1-0.1-4.7 3.1-0.6 7.1-0.3 9.4-3 1.8-3.2 1.5-6.9 1.6-10.5 -0.2-12.3 0.1-24.7-0.1-37.1C662 153.8 656 152.4 654.3 148.2z" class="c"/><path d="M858.9 147.9c6.8-2.8 13.2-6.5 20-9.4 0.1 4.5 0.1 9 0.1 13.5 5.5-4.2 11-9.3 18.1-10.6 3.7-0.6 8.4 1.1 9.4 5 1.7 4.9-2.5 10.4-7.6 10.4 -4.6-1.2-8.7-5.4-13.9-3.7 -4.7 1.8-5.8 7.3-6 11.8 -0.2 11 0 22.1-0.1 33.1 0.1 3.2-0.1 7 2.4 9.5 3.6 1.9 7.8 1.4 11.8 1.8 -0.2 1.6-0.4 3.2-0.6 4.9 -11.8-0.9-23.7-1-35.5-0.2 -2.1 0.2-1.7-2.9-2.6-4.1 3.2-0.9 6.8-0.9 9.5-3 1.9-2.5 1.7-5.9 2-8.8 0.1-11.7-0.1-23.3 0.1-35 -0.1-2.6 0.1-5.4-1.2-7.7 -1.5-2-3.6-3.3-5.6-4.8C859.1 149.9 859 148.6 858.9 147.9z" class="c"/><path d="M1093.4 143.5c3.2-1.6 6.3-3.6 9.7-4.8 1.3 3.8 0.2 7.9 0.8 11.9 9.2-5.1 19.3-11.3 30.3-8.8 6.2 0.9 10.5 5.8 14.1 10.5 7-4 13.7-8.9 21.8-10.3 8.3-1.9 18.6 0.2 23.3 7.8 3.9 6 3.9 13.4 3.8 20.2 0 10 0 20 0 30.1 0.1 2.6 0.1 5.7 2.4 7.4 2.7 1.5 5.9 1.4 8.9 1.9 0 1.6-0.1 3.1-0.1 4.7 -11.5-0.8-23-1.1-34.5 0.1 -0.2-1.6-0.5-3.1-0.7-4.7 3-0.7 6.5-0.6 8.9-2.6 2-2.9 1.6-6.6 1.8-9.9 -0.1-10.3 0.1-20.7-0.1-31 -0.1-5.5-2.2-11.5-7.4-14.1 -6.9-3.4-15.7-2.2-21.6 2.5 -3.5 2.8-4.5 7.4-4.4 11.6 0.1 10.7 0 21.4 0 32.1 0.2 3 0.1 6.5 2.1 8.9 2.5 2 5.9 1.8 8.9 2.4 0 1.6-0.1 3.1 0 4.7 -11.4-0.7-22.9-1-34.4 0.1 0.1-1.6 0.1-3.2-0.1-4.8 2.9-0.6 6.1-0.5 8.5-2.4 1.9-2.1 1.9-5.2 2-7.9 0-10.7 0.1-21.3 0-32 -0.1-5.8-2.1-12.5-7.6-15.2 -7.5-3.5-17.6-2-23.1 4.4 -2.8 3.2-2.7 7.8-2.8 11.9 0.1 10.6-0.1 21.2 0.1 31.7 0.3 2.5 0.1 5.6 2.2 7.4 2.4 1.3 5.2 1.5 7.8 2.4 1.1 1 0.4 2.8 0.1 4 -1.6 0.3-3.1 0.2-4.7 0.1 -10-0.8-20.1-0.5-30.1 0.3 0-1.6-0.1-3.2-0.1-4.8 3.3-0.5 7.1-0.3 9.9-2.5 1.8-2.9 1.3-6.5 1.5-9.8 -0.1-12.6 0.1-25.3-0.1-38 0.4-4.8-4.6-6.8-7.5-9.5C1085.4 146.3 1089.7 145.3 1093.4 143.5z" class="c"/><path d="M1237 141.1c1.8-0.9 3.6-2.4 5.7-1.9 0.3 3.8 0.1 7.6 0.2 11.3 6.9-3 13.4-7.6 21-8.7 8.3-1.7 18.6 0.6 22.8 8.6 3.5 5.9 3.2 13 3.1 19.7 0 10-0.1 20 0.1 29.9 0.1 2.4 0.1 5.3 1.9 7.2 2.6 1.9 6.4 1.2 9.1 2.9 0.2 1.5 0.4 4.4-1.9 3.9 -11-0.6-22-0.6-32.9 0.1 0-1.5 0-3 0-4.6 3.1-0.8 7-0.5 9.2-3.1 1.6-3.5 1.2-7.5 1.3-11.3 -0.2-10 0.2-19.9-0.1-29.9 -0.1-5.5-2.9-11.2-8.1-13.6 -5.9-2.6-13.1-2.1-18.8 1 -3.8 2.1-6.9 6-6.7 10.5 -0.2 12 0 24-0.1 36 0.2 2.6-0.2 5.6 1.5 7.8 2.5 1.9 5.8 2 8.7 2.7 -0.1 1.5-0.1 3-0.1 4.5 -11.4-0.7-22.9-0.9-34.2 0.1 0.2-1.5-1.4-3.8 0.6-4.6 2.6-0.9 5.6-0.8 8-2.3 2.2-2.1 1.7-5.5 1.9-8.2 -0.1-13.7 0.2-27.4-0.1-41 0.2-4.8-6.8-5.5-6.5-10.3C1227.5 145.9 1232.4 143.8 1237 141.1z" class="c"/><path d="M1453.2 144.1c4-1.8 7.8-4 11.8-5.6 -0.1 20.5-0.2 41-0.1 61.5 0.2 2.4-0.1 5.4 1.9 7.2 2.6 1.7 5.8 1.6 8.8 2 -0.2 1.6-0.2 3.2-0.1 4.9 -11.6-1-23.3-1-34.9 0 0.1-1.6 0.1-3.3-0.1-4.9 3.4-0.6 8.3 0 10.1-3.7 1.2-4.7 0.5-9.6 0.7-14.4 -0.2-11.4 0.3-22.7-0.2-34.1 -0.2-4.1-7-4.7-6.2-8.9C1447.3 146.3 1450.3 145.4 1453.2 144.1z" class="c"/><path d="M1580.9 148c6.9-2.7 13.4-6.5 20.2-9.5 0 3.8-0.2 7.6 0.2 11.4 2.6 0.2 4.6-1.8 6.8-2.9 8-4.8 18-7.7 27-4.2 4.6 1.7 7.7 5.6 10.5 9.5 6.7-3.6 12.9-8.4 20.6-10 8.5-2.4 19.2-0.6 24.4 7.1 4.3 5.9 3.9 13.6 3.8 20.6 0 10-0.2 19.9 0.1 29.9 0.3 2.5 0.2 5.6 2.2 7.4 2.8 1.7 6.3 1.6 9.4 2.1 -0.4 1.5 0.4 4.8-2.1 4.6 -11-0.6-22.1-0.8-33.1 0.1 -0.1-1.6-0.1-3.1 0-4.7 3.6-0.8 9.3-0.7 9.9-5.5 0.9-11.6 0.2-23.3 0.4-34.9 0.2-6.3-1.2-13.7-7.2-17.1 -7.4-3.7-17.5-2.4-23.3 3.7 -3 3-2.9 7.5-2.9 11.4 0.1 11-0.1 22 0.1 33 0.2 2.6 0 6 2.5 7.6 2.8 1.2 5.9 1.2 8.6 2.5 -0.3 1.4-0.5 2.7-0.7 4.1 -11.3-1.3-22.7-0.6-34-0.4 -0.3-1.4-0.4-2.8-0.5-4.3 3.6-0.8 9.6-0.6 10.1-5.5 1.3-8.9 0.3-17.9 0.6-26.9 -0.2-7.2 1-15.2-3.3-21.4 -4.1-5.8-12.2-6.6-18.6-4.9 -5.7 1.5-11.3 6-11.6 12.2 -0.4 11.3 0 22.7-0.1 34.1 0.1 3.3-0.2 7.2 2.1 9.9 2.3 1.9 5.6 1.8 8.4 2.4 -0.3 1.6-0.3 3.2-0.1 4.8 -11.6-1-23.2-1-34.8 0 -0.2-1.4-0.4-2.7-0.5-4.1 3.1-2 7.8-0.6 10.3-3.7 1.9-3.5 1.5-7.6 1.6-11.4 -0.2-12 0.1-24-0.1-36 0.1-4.1-3.8-6.3-6.7-8.4C1581.1 149.9 1580.9 148.6 1580.9 148z" class="c"/><path d="M502.5 150.6c12.6-10 30.4-11.7 45.3-6.4 2.3 4 3.6 9.7-0.2 13.2 -2.1 1.8-4.3-0.9-5.8-2.3 -3.9-4.1-9.1-7.3-14.8-7.6 -8.6-0.5-17.4 4.4-21.4 12.1 -7.1 13.2-4.2 31.6 7.9 40.9 7.8 5.8 19 7.4 27.7 2.7 3.7-1.9 6.2-5.2 8.8-8.4 1 0.8 2.1 1.6 3.1 2.4 -5.9 14.4-23.4 21.4-38.1 17.8 -10.6-1.8-19.7-9.6-23.6-19.5C485.5 180.3 489.5 161.1 502.5 150.6z" class="c"/><path d="M796.1 151.1c9.5-9.9 25.8-12.9 37.9-6.3 7.2 3.8 12.1 12.1 10.9 20.3 -0.3 1-0.6 2.8-2 2.8 -15.4 0.9-30.9-0.8-46.2 0.9 -0.8 10 1.2 20.8 8.3 28.2 5.9 6.8 15.6 10 24.5 8.6 5-0.8 8.7-4.4 12.2-7.8 1.4-1.9 4.1 0.3 3.1 2.2 -1.5 3.6-4.3 6.4-7.1 8.9 -11.5 9.3-29.2 9.5-40.9 0.4 -8.2-6.4-12.3-17-12.3-27.2C784.2 170.7 788 159.1 796.1 151.1z" class="c"/><path d="M936.1 142.3c9.1-2.5 18.8-0.3 27.2 3.4 7.5 3.3 16 1.9 24 2.2 -0.3 2.2 0.6 5.2-1.4 6.8 -4.4 0.5-8.8 0.1-13.2 0.2 0.5 7.9 0.7 16.3-3.3 23.3 -4.2 8.2-13.2 13-22.2 13.6 -4 0.3-8-0.3-11.9 0.1 -4.4 1.7-8.8 6.6-6.8 11.6 2.6 4.3 8.2 4.9 12.7 4.8 8.4-0.4 16.7-0.8 25.1-0.4 6.2 0.5 13.1 2.6 16.7 8.1 4.3 7.1 3.6 16.3-0.1 23.4 -4.1 8.1-11.8 13.7-20 17.1 -10.4 4.2-22.2 5.4-33.1 2.6 -6.3-1.7-12.6-5.5-15.5-11.6 -1.9-4-2.7-9.1-0.4-13.1 4.2-6.1 11.2-9.7 14.9-16.2 -6.6-2.3-14.5-7.5-13.6-15.4 4.5-4.5 10.4-7.6 13.8-13.2 -3.6-2.5-7.3-5.1-9.7-8.9 -5.1-7.7-4.9-18.2-0.2-26C922.6 148.6 929.1 144.2 936.1 142.3z" class="c"/><path d="M1327.3 146.2c8-4.1 17.9-7 26.5-3.1 5.8 2.4 8.6 8.8 9 14.8 0.3 14-1.8 28-0.7 42 0.4 3.4 2.4 6.9 5.9 7.9 3.4 0.9 6.3-1.9 9.7-1.7 0.9 2.2-1.1 3.9-2.5 5.1 -4.9 4-12 6.2-18 3.6 -3.5-1.3-5.6-4.5-8.4-6.9 -4.7 1.5-8.6 4.9-13.2 6.6 -5 2.2-10.8 1.7-15.6-0.5 -7.2-3.3-10.7-12.6-7.9-19.9 1.8-4.4 6.4-6.7 10.6-8.5 8.7-3.5 17.7-6.3 26.5-9.8 1.1-6.7 1.8-13.9-0.5-20.4 -2.9-7.9-14.2-8.9-20.2-4.1 -3.1 2.6-1.8 7.2-3.6 10.4 -3 2.8-7.3 4-11.3 4 -2.8-0.7-1.8-4.4-0.9-6.3C1315.6 153.3 1321.6 149.4 1327.3 146.2z" class="c"/><path d="M1392.5 146.5c8.1-6.1 19.1-6.2 28.6-3.8 1.6 0.6 3.7 0.9 4.4 2.7 2 4.5 2.5 9.5 2.5 14.4 -1.3 0.1-2.6 0.2-3.8 0.2 -2.1-4-4.1-8.5-8.1-11.1 -3.7-2.5-8.5-2.8-12.7-1.5 -5.3 1.9-7.9 8.7-5.5 13.7 1.9 4.3 6.1 6.8 10 9 6.1 3.6 12.8 7 17 12.9 3.7 5.1 4.4 11.8 3.1 17.8 -1.4 5.5-5.7 9.8-10.8 12 -10.5 4.6-23.2 3.9-32.9-2.1 -1.7-6.1-2.4-12.5-2.1-18.8 1.3 0 2.6-0.1 3.9-0.1 2.4 6.1 5 12.8 10.8 16.4 5.3 3.3 13.5 3.3 17.6-1.9 4-5.2 2.2-13.1-2.6-17.2 -6.9-6-16.2-8.8-22-16.1C1383.2 165.5 1384.4 152.6 1392.5 146.5z" class="c"/><path d="M1487 144.8c7.1-0.5 14-1.9 20.8-3.5 0.4 1.2 0.6 2.4 0.5 3.6 -0.6 14-0.2 28-0.3 42.1 0.1 5.5 0.4 11.6 4.1 15.9 3.4 4.2 9.3 5 14.4 4.5 5-0.7 10.1-2.6 13.4-6.6 3.1-3.9 2-9.2 2.2-13.7 -0.3-10.6 0.5-21.2-0.4-31.7 -0.4-4.7-5.8-5.3-9-7.4 -1.9-2.8 2.2-3.6 4.3-3.7 6.3-0.2 12.5-1.2 18.4-3.1 0.8 6.6-0.6 13.3-0.3 19.9 0.3 12.5-0.5 25.1 0.6 37.5 0.4 2.9 0.6 6.8 3.8 8 2.9 0.5 5.9-0.4 8.8-0.7 0 1.7 0 3.3 0.1 5 -8.2 1.9-16.6 3.2-24.2 6.9 -0.5-0.2-1.5-0.6-1.9-0.9 0-3.4-0.1-6.9-0.1-10.3 -7 3.4-13.5 8.1-21.4 9.1 -7.7 1.1-17.2-0.1-22-7 -4.9-7.3-3.2-16.4-3.5-24.6 -0.2-9.5 0.5-19.1-0.4-28.6 -0.2-4.2-4.5-5.7-7.7-7.2C1486.9 147.3 1487 145.7 1487 144.8z" class="c"/><path d="M995.9 143.2c5.7 0.4 11.4 0.8 17.1 0.8 5.7 0.1 11.4-0.8 17-0.5 0 1.4-0.1 2.8-0.1 4.2 -3.1 0.7-6.2 1.6-9.2 2.5 1.6 7 4.2 13.8 6.6 20.6 3 8.5 5.8 17.2 9.5 25.5 5.4-9.5 9.3-19.8 13.6-29.8 2.2-5.3 4.5-10.6 5-16.4 -3.4-0.9-6.8-1.7-10.3-2.3 -0.1-1.4-0.2-2.8-0.2-4.1 6.4-0.5 12.8 0.7 19.2 0.4 3.9-0.1 7.7-0.8 11.6-0.5 0.3 1.4 0.5 2.7 0.7 4.1 -3.1 0.9-6.7 1.2-9.1 3.6 -3.1 3-5.2 7-7.1 10.8 -14.3 29-28.3 58.2-41.6 87.6 -2.1 5.3-7.7 8.9-13.5 7.5 -5.4-0.8-6.9-8.1-4.1-12.1 3.7-4.5 11.5-0.1 14.7-5.4 3.7-5.5 6.8-11.5 9.5-17.6 1.6-3.9 3.3-8.2 2.4-12.5 -0.9-4.4-2.6-8.6-4.1-12.8 -4.7-12.7-9.3-25.5-13.9-38.2 -1.2-2.9-2.3-6.1-4.9-8 -2.7-1.6-5.9-2-8.8-2.7C995.8 146.2 995.8 144.7 995.9 143.2z" class="c"/><path d="M798.4 162.9c1.7-12.1 17.1-19.9 27.9-14.1 4.4 2.4 5.6 7.7 5 12.3C820.6 163.9 809.4 162.7 798.4 162.9z" class="a"/><path d="M940.4 147.3c4.6-1.2 10-0.6 13.4 2.8 5 4.8 6.4 12.2 6.3 18.9 0.1 5.3-1.4 11-5.4 14.7 -3.9 3.3-9.7 4.3-14.3 1.9 -7.4-3.3-10.8-11.9-10.5-19.6C929.7 158.6 932.9 149.9 940.4 147.3z" class="a"/><path d="M1330.4 188.5c5.8-3.1 12.1-5.3 18.6-6 -0.1 5.5 0.2 10.9-0.3 16.4 -0.7 5.1-6.2 7.4-10.6 8.6 -6.1 1.8-12.8-3.1-13.2-9.4C1324.3 194 1327 190.4 1330.4 188.5z" class="a"/><path d="M939.4 219.5c5.1-0.7 10.4-0.5 15.5-0.5 5.4 0 11.3 0.7 15.7 4.2 4.7 3.8 5.5 10.7 3.8 16.1 -3.1 7.7-11.2 12.1-19 13.3 -8 1.1-16.8 0.4-23.5-4.4 -5.2-3.8-7.2-10.9-5.5-16.9C928.2 225.4 932.9 219.9 939.4 219.5z" class="a"/><path d="M1053 231.4c223.7 0 447.3 0 671 0v1.8c-223.7 0-447.3 0-671 0C1053 232.8 1053 231.9 1053 231.4z" class="b"/></svg>